<?xml version="1.0" encoding="UTF-8" standalone="no"?>
<!-- Created with Inkscape (http://www.inkscape.org/) -->

<svg
   version="1.1"
   id="svg69"
   width="91.369209"
   height="54.912544"
   viewBox="0 0 91.369209 54.912544"
   sodipodi:docname="be898cd1192d1f0847a0f4c1bb087fb9.png"
   inkscape:version="1.1.2 (0a00cf5339, 2022-02-04)"
   xmlns:inkscape="http://www.inkscape.org/namespaces/inkscape"
   xmlns:sodipodi="http://sodipodi.sourceforge.net/DTD/sodipodi-0.dtd"
   xmlns="http://www.w3.org/2000/svg"
   xmlns:svg="http://www.w3.org/2000/svg">
  <defs
     id="defs73" />
  <sodipodi:namedview
     id="namedview71"
     pagecolor="#ffffff"
     bordercolor="#666666"
     borderopacity="1.0"
     inkscape:pageshadow="2"
     inkscape:pageopacity="0.0"
     inkscape:pagecheckerboard="0"
     showgrid="false"
     fit-margin-top="0"
     fit-margin-left="0"
     fit-margin-right="0"
     fit-margin-bottom="0"
     inkscape:zoom="2.1276042"
     inkscape:cx="6.1101591"
     inkscape:cy="75.906977"
     inkscape:window-width="1920"
     inkscape:window-height="1022"
     inkscape:window-x="0"
     inkscape:window-y="34"
     inkscape:window-maximized="1"
     inkscape:current-layer="g75" />
  <g
     inkscape:groupmode="layer"
     inkscape:label="Image"
     id="g75"
     transform="translate(-30.680556,-48.135891)">
    <path
       style="fill:#000000;stroke-width:0.32"
       d="m 42.14823,91.225203 11.93798,-11.981404 2.48314,-0.653862 2.48316,-0.653862 0.5657,2.195988 c 0.85109,3.30384 2.29159,5.88105 4.71043,8.42747 l 2.17503,2.28973 -1.84499,1.82574 -1.84499,1.82573 -8.78171,2.35722 c -4.82995,1.29647 -11.949721,3.183637 -15.821721,4.193697 -3.872,1.01006 -7.256,1.90814 -7.52,1.99572 -0.264,0.0876 4.892086,-5.232387 11.457971,-11.822167 z m 26.14203,4.53771 c -0.24275,-0.39277 -0.2454,-0.38844 2.63355,-4.29909 1.28721,-1.7485 2.28576,-3.3325 2.21898,-3.52 -0.12581,-0.35325 -0.41413,-0.35339 -2.68014,-10e-4 -1.30848,0.2033 -1.40409,0.15551 -3.29267,-1.64589 -2.40577,-2.29472 -3.85366,-5.11931 -4.07278,-7.94533 -0.1435,-1.850756 -0.10138,-1.995437 0.841,-2.888224 0.89968,-0.852349 1.34859,-2.104263 0.75206,-2.097351 -0.132,0.0016 -2.04,0.216279 -4.24,0.477219 -5.04465,0.598346 -4.8,0.610506 -4.8,-0.238592 0,-0.896899 6.81625,-7.639155 12.6997,-12.561827 5.53402,-4.630313 11.45112,-9.064925 12.41968,-9.308019 0.43612,-0.109459 3.26586,0.07252 6.2883,0.4044 l 5.49534,0.603421 3.4553,-1.384778 c 5.3117,-2.128765 9.02685,-2.979875 13.90266,-3.184982 5.80931,-0.244378 11.22893,0.748829 12.00567,2.200169 0.83639,1.562813 -2.42692,9.554343 -5.56497,13.628045 -4.87964,6.334589 -13.87241,12.32112 -25.66168,17.083109 -2.112,0.8531 -3.6501,1.55288 -3.41799,1.55507 1.50421,0.0142 11.07059,-2.87513 14.41203,-4.352876 0.95939,-0.424285 1.78507,-0.730698 1.83485,-0.680919 0.2196,0.219607 -2.8784,6.869285 -3.49904,7.510475 -1.47166,1.5204 -16.43767,7.2277 -25.38853,9.68193 -4.86253,1.33321 -6.00634,1.50733 -6.34132,0.96532 z m 4.52541,-23.400102 c 10.80504,-7.859357 20.84754,-13.582122 29.39459,-16.750631 3.67634,-1.36287 10.85399,-3.266595 13.47957,-3.575181 1.47161,-0.17296 1.68358,-0.270019 1.19472,-0.547078 -1.02937,-0.583392 -9.51298,-0.419904 -12.59429,0.242707 -10.39038,2.234368 -21.18647,8.92969 -32.48,20.142848 -2.288,2.271719 -3.85156,3.931731 -3.47459,3.688919 0.37698,-0.242816 2.39298,-1.68353 4.48,-3.201584 z"
       id="path159" />
  </g>
</svg>
